<svg id="toll-booth"  viewBox="0 0 122 121" fill="none" xmlns="http://www.w3.org/2000/svg">
<path  fill="#dedefd" d="M13 109.499H8V114.499H13V109.499ZM29.3755 109.499V114.499H34.3755V109.499H29.3755ZM64.5801 12.8901C66.1763 10.6367 65.6435 7.51604 63.3901 5.91988C61.1367 4.32373 58.016 4.85652 56.4199 7.10991L64.5801 12.8901ZM60.2158 94.3581L58.0582 98.8687L60.2158 94.3581ZM77.5214 94.3363L79.6903 98.8414L77.5214 94.3363ZM85.3572 32.6349L80.6488 34.3174L80.6488 34.3174L85.3572 32.6349ZM54.0809 91.4236L51.9234 95.9342L54.0809 91.4236ZM51.9234 100.52V95.9342H41.9234V100.52H51.9234ZM85.6828 95.9564V100.841H95.6828V95.9564H85.6828ZM113 100.841V79.8333H103V100.841H113ZM113 79.8333V73.9254H103V79.8333H113ZM109.19 66.0718L98.9082 57.9671L92.7178 65.8207L103 73.9254L109.19 66.0718ZM100.521 60.2114L90.0656 30.9524L80.6488 34.3174L91.1046 63.5765L100.521 60.2114ZM75.9404 21H65.6691V31H75.9404V21ZM51.9234 95.9342L58.0582 98.8687L62.3733 89.8475L56.2384 86.9131L51.9234 95.9342ZM79.6903 98.8414L85.6828 95.9564L81.345 86.9462L75.3525 89.8312L79.6903 98.8414ZM95.813 56.8939H37.9437V66.8939H95.813V56.8939ZM13 114.499H29.3755V104.499H13V114.499ZM34.3755 109.499V70.4995H24.3755V109.499H34.3755ZM24.3755 60.4995H18V70.4995H24.3755V60.4995ZM8 70.4995V109.499H18V70.4995H8ZM25.2679 68.3896L64.5801 12.8901L56.4199 7.10991L17.1076 62.6094L25.2679 68.3896ZM58.0582 98.8687C64.8998 102.141 72.857 102.131 79.6903 98.8414L75.3525 89.8312C71.2525 91.805 66.4782 91.811 62.3733 89.8475L58.0582 98.8687ZM90.0656 30.9524C87.9328 24.9838 82.2786 21 75.9404 21V31C78.0532 31 79.9379 32.3279 80.6488 34.3174L90.0656 30.9524ZM113 73.9254C113 70.8622 111.596 67.968 109.19 66.0718L103 73.9254L103 73.9254H113ZM18 60.4995C12.4772 60.4995 8 64.9766 8 70.4995H18L18 70.4995V60.4995ZM99.3414 114.499C106.885 114.499 113 108.384 113 100.841H103C103 102.861 101.362 104.499 99.3414 104.499V114.499ZM34.3755 70.4995C34.3755 64.9766 29.8984 60.4995 24.3755 60.4995V70.4995L24.3755 70.4995H34.3755ZM85.6828 100.841C85.6828 108.384 91.798 114.499 99.3414 114.499V104.499C97.3208 104.499 95.6828 102.861 95.6828 100.841H85.6828ZM95.6828 95.9564C95.6828 88.5879 87.9842 83.7499 81.345 86.9462L85.6828 95.9564L85.6828 95.9564H95.6828ZM51.9234 95.9342L51.9234 95.9342L56.2384 86.9131C49.6011 83.7383 41.9234 88.5766 41.9234 95.9342H51.9234ZM37.9437 114.499C45.6645 114.499 51.9234 108.241 51.9234 100.52H41.9234C41.9234 102.718 40.1416 104.499 37.9437 104.499V114.499Z"/>
</svg>
